ply
format ascii 1.0
comment Elektron Phase 4D fixture surface — not production mesh
comment mesh_id MESH-LOD0-FIXTURE-000001
comment lod 0
comment authority RECONSTRUCTION_ESTIMATE
element vertex 47
property float x
property float y
property float z
property float nx
property float ny
property float nz
property uchar red
property uchar green
property uchar blue
element face 63
property list uchar int vertex_indices
end_header
-0.010000000 -0.010000000 2.000000000 0.000000000 0.000000000 -1.000000000 11 211 213
-0.010000000 -0.030000000 2.000000000 0.000000000 0.000000000 -1.000000000 11 211 213
-0.010000000 0.010000000 2.000000000 0.000000000 0.000000000 -1.000000000 11 211 213
-0.010000000 0.030000000 2.000000000 0.000000000 0.000000000 -1.000000000 11 211 213
-0.030000000 -0.010000000 2.000000000 0.000000000 0.000000000 -1.000000000 11 211 213
-0.030000000 -0.030000000 2.000000000 0.000000000 0.000000000 -1.000000000 11 211 213
-0.030000000 0.010000000 2.000000000 0.000000000 0.000000000 -1.000000000 11 211 213
-0.030000000 0.030000000 2.000000000 0.000000000 0.000000000 -1.000000000 11 211 213
0.000486486 0.000000000 2.000000000 0.000000000 0.000000000 -1.000000000 0 220 220
0.070000000 -0.010000000 2.000000000 0.000000000 0.000000000 -1.000000000 11 211 213
0.070000000 -0.030000000 2.000000000 0.000000000 0.000000000 -1.000000000 11 211 213
0.070000000 0.010000000 2.000000000 0.000000000 0.000000000 -1.000000000 11 211 213
0.070000000 0.030000000 2.000000000 0.000000000 0.000000000 -1.000000000 11 211 213
0.090000000 -0.010000000 2.000000000 0.000000000 0.000000000 -1.000000000 11 211 213
0.090000000 -0.030000000 2.000000000 0.000000000 0.000000000 -1.000000000 11 211 213
0.090000000 0.010000000 2.000000000 0.000000000 0.000000000 -1.000000000 11 211 213
0.090000000 0.030000000 2.000000000 0.000000000 0.000000000 -1.000000000 11 211 213
0.110000000 -0.010000000 2.000000000 0.000000000 0.000000000 -1.000000000 11 211 213
0.110000000 -0.030000000 2.000000000 0.000000000 0.000000000 -1.000000000 11 211 213
0.110000000 0.010000000 2.000000000 0.000000000 0.000000000 -1.000000000 11 211 213
0.110000000 0.030000000 2.000000000 0.000000000 0.000000000 -1.000000000 11 211 213
0.130000000 -0.010000000 2.000000000 0.000000000 0.000000000 -1.000000000 11 211 213
0.130000000 -0.030000000 2.000000000 0.000000000 0.000000000 -1.000000000 11 211 213
0.130000000 0.010000000 2.000000000 0.000000000 0.000000000 -1.000000000 11 211 213
0.010000000 -0.010000000 2.000000000 0.000000000 0.000000000 -1.000000000 11 211 213
0.010000000 -0.030000000 2.000000000 0.000000000 0.000000000 -1.000000000 11 211 213
0.012000000 0.000000000 2.000000000 0.000000000 0.000000000 -1.000000000 176 76 108
0.010000000 0.010000000 2.000000000 0.000000000 0.000000000 -1.000000000 11 211 213
0.010000000 0.030000000 2.000000000 0.000000000 0.000000000 -1.000000000 11 211 213
0.170000000 -0.010000000 2.000000000 0.000000000 0.000000000 -1.000000000 11 211 213
0.170000000 -0.030000000 2.000000000 0.000000000 0.000000000 -1.000000000 11 211 213
0.170000000 0.010000000 2.000000000 0.000000000 0.000000000 -1.000000000 11 211 213
0.170000000 0.030000000 2.000000000 0.000000000 0.000000000 -1.000000000 11 211 213
0.190000000 -0.010000000 2.000000000 0.000000000 0.000000000 -1.000000000 11 211 213
0.190000000 -0.030000000 2.000000000 0.000000000 0.000000000 -1.000000000 11 211 213
0.190000000 0.010000000 2.000000000 0.000000000 0.000000000 -1.000000000 11 211 213
0.190000000 0.030000000 2.000000000 0.000000000 0.000000000 -1.000000000 11 211 213
0.210000000 -0.010000000 2.000000000 0.000000000 0.000000000 -1.000000000 11 211 213
0.210000000 -0.030000000 2.000000000 0.000000000 0.000000000 -1.000000000 11 211 213
0.210000000 0.010000000 2.000000000 0.000000000 0.000000000 -1.000000000 11 211 213
0.210000000 0.030000000 2.000000000 0.000000000 0.000000000 -1.000000000 11 211 213
0.230000000 -0.010000000 2.000000000 0.000000000 0.000000000 -1.000000000 11 211 213
0.230000000 -0.030000000 2.000000000 0.000000000 0.000000000 -1.000000000 11 211 213
0.230000000 0.010000000 2.000000000 0.000000000 0.000000000 -1.000000000 11 211 213
0.030000000 -0.010000000 2.000000000 0.000000000 0.000000000 -1.000000000 11 211 213
0.030000000 -0.030000000 2.000000000 0.000000000 0.000000000 -1.000000000 11 211 213
0.030000000 0.010000000 2.000000000 0.000000000 0.000000000 -1.000000000 11 211 213
3 5 4 1
3 4 6 0
3 4 0 1
3 6 7 2
3 6 2 0
3 7 3 2
3 1 0 25
3 0 2 8
3 0 8 24
3 0 24 25
3 2 3 27
3 2 27 8
3 3 28 27
3 8 27 26
3 8 26 24
3 25 24 45
3 24 26 44
3 24 44 45
3 27 28 46
3 27 46 26
3 28 12 46
3 26 46 44
3 45 44 9
3 45 9 10
3 44 46 9
3 46 11 9
3 46 12 11
3 10 9 14
3 9 11 15
3 9 13 14
3 11 12 15
3 12 16 15
3 14 13 18
3 13 17 18
3 15 16 19
3 16 20 19
3 18 17 21
3 18 21 22
3 17 23 21
3 19 20 23
3 20 32 23
3 22 21 29
3 22 29 30
3 21 23 29
3 23 31 29
3 23 32 31
3 30 29 34
3 29 31 33
3 29 33 34
3 31 32 35
3 31 35 33
3 32 36 35
3 34 33 38
3 33 35 37
3 33 37 38
3 35 36 39
3 35 39 37
3 36 40 39
3 38 37 42
3 37 39 41
3 37 41 42
3 39 40 43
3 39 43 41
