ply
format ascii 1.0
comment Elektron Phase 4D fixture surface — not production mesh
comment mesh_id MESH-LOD2-FIXTURE-000001
comment lod 2
comment authority RECONSTRUCTION_ESTIMATE
element vertex 38
property float x
property float y
property float z
property float nx
property float ny
property float nz
element face 29
property list uchar int vertex_indices
end_header
-0.010000000 -0.030000000 2.000000000 0.000000000 0.000000000 -1.000000000
-0.010000000 0.030000000 2.000000000 0.000000000 0.000000000 -1.000000000
-0.030000000 -0.010000000 2.000000000 0.000000000 0.000000000 -1.000000000
-0.030000000 -0.030000000 2.000000000 0.000000000 0.000000000 -1.000000000
-0.030000000 0.010000000 2.000000000 0.000000000 0.000000000 -1.000000000
-0.030000000 0.030000000 2.000000000 0.000000000 0.000000000 -1.000000000
0.070000000 -0.010000000 2.000000000 0.000000000 0.000000000 -1.000000000
0.070000000 -0.030000000 2.000000000 0.000000000 0.000000000 -1.000000000
0.070000000 0.030000000 2.000000000 0.000000000 0.000000000 -1.000000000
0.090000000 -0.010000000 2.000000000 0.000000000 0.000000000 -1.000000000
0.090000000 -0.030000000 2.000000000 0.000000000 0.000000000 -1.000000000
0.090000000 0.010000000 2.000000000 0.000000000 0.000000000 -1.000000000
0.090000000 0.030000000 2.000000000 0.000000000 0.000000000 -1.000000000
0.110000000 -0.010000000 2.000000000 0.000000000 0.000000000 -1.000000000
0.110000000 -0.030000000 2.000000000 0.000000000 0.000000000 -1.000000000
0.110000000 0.010000000 2.000000000 0.000000000 0.000000000 -1.000000000
0.110000000 0.030000000 2.000000000 0.000000000 0.000000000 -1.000000000
0.130000000 -0.030000000 2.000000000 0.000000000 0.000000000 -1.000000000
0.130000000 0.010000000 2.000000000 0.000000000 0.000000000 -1.000000000
0.010000000 -0.030000000 2.000000000 0.000000000 0.000000000 -1.000000000
0.010000000 0.030000000 2.000000000 0.000000000 0.000000000 -1.000000000
0.170000000 -0.030000000 2.000000000 0.000000000 0.000000000 -1.000000000
0.170000000 0.010000000 2.000000000 0.000000000 0.000000000 -1.000000000
0.170000000 0.030000000 2.000000000 0.000000000 0.000000000 -1.000000000
0.190000000 -0.010000000 2.000000000 0.000000000 0.000000000 -1.000000000
0.190000000 -0.030000000 2.000000000 0.000000000 0.000000000 -1.000000000
0.190000000 0.010000000 2.000000000 0.000000000 0.000000000 -1.000000000
0.190000000 0.030000000 2.000000000 0.000000000 0.000000000 -1.000000000
0.210000000 -0.010000000 2.000000000 0.000000000 0.000000000 -1.000000000
0.210000000 -0.030000000 2.000000000 0.000000000 0.000000000 -1.000000000
0.210000000 0.010000000 2.000000000 0.000000000 0.000000000 -1.000000000
0.210000000 0.030000000 2.000000000 0.000000000 0.000000000 -1.000000000
0.230000000 -0.010000000 2.000000000 0.000000000 0.000000000 -1.000000000
0.230000000 -0.030000000 2.000000000 0.000000000 0.000000000 -1.000000000
0.230000000 0.010000000 2.000000000 0.000000000 0.000000000 -1.000000000
0.030000000 -0.010000000 2.000000000 0.000000000 0.000000000 -1.000000000
0.030000000 -0.030000000 2.000000000 0.000000000 0.000000000 -1.000000000
0.030000000 0.010000000 2.000000000 0.000000000 0.000000000 -1.000000000
3 3 2 0
3 20 8 37
3 36 35 6
3 36 6 7
3 35 37 6
3 7 6 10
3 6 9 10
3 8 12 11
3 10 9 14
3 9 13 14
3 11 12 15
3 12 16 15
3 15 16 18
3 16 23 18
3 18 23 22
3 22 23 26
3 22 26 24
3 23 27 26
3 25 24 29
3 24 26 28
3 24 28 29
3 26 27 30
3 26 30 28
3 27 31 30
3 29 28 33
3 28 30 32
3 28 32 33
3 30 31 34
3 30 34 32
