ply
format ascii 1.0
comment Elektron Phase 4D fixture surface — not production mesh
comment mesh_id MESH-LOD1-FIXTURE-000001
comment lod 1
comment authority RECONSTRUCTION_ESTIMATE
comment numeric_law Double_internal_ascii_float_export
element vertex 35
property float x
property float y
property float z
property float nx
property float ny
property float nz
element face 43
property list uchar int vertex_indices
end_header
-0.010000000 -0.010000000 2.000000000 0.000000000 0.000000000 -1.000000000
-0.010000000 -0.030000000 2.000000000 0.000000000 0.000000000 -1.000000000
-0.010000000 0.010000000 2.000000000 0.000000000 0.000000000 -1.000000000
-0.010000000 0.030000000 2.000000000 0.000000000 0.000000000 -1.000000000
-0.030000000 -0.010000000 2.000000000 0.000000000 0.000000000 -1.000000000
-0.030000000 -0.030000000 2.000000000 0.000000000 0.000000000 -1.000000000
-0.030000000 0.010000000 2.000000000 0.000000000 0.000000000 -1.000000000
-0.030000000 0.030000000 2.000000000 0.000000000 0.000000000 -1.000000000
0.000486486 0.000000000 2.000000000 0.000000000 0.000000000 -1.000000000
0.070000000 -0.010000000 2.000000000 0.000000000 0.000000000 -1.000000000
0.070000000 -0.030000000 2.000000000 0.000000000 0.000000000 -1.000000000
0.070000000 0.030000000 2.000000000 0.000000000 0.000000000 -1.000000000
0.090000000 -0.010000000 2.000000000 0.000000000 0.000000000 -1.000000000
0.090000000 -0.030000000 2.000000000 0.000000000 0.000000000 -1.000000000
0.090000000 0.010000000 2.000000000 0.000000000 0.000000000 -1.000000000
0.090000000 0.030000000 2.000000000 0.000000000 0.000000000 -1.000000000
0.110000000 -0.010000000 2.000000000 0.000000000 0.000000000 -1.000000000
0.110000000 -0.030000000 2.000000000 0.000000000 0.000000000 -1.000000000
0.110000000 0.010000000 2.000000000 0.000000000 0.000000000 -1.000000000
0.110000000 0.030000000 2.000000000 0.000000000 0.000000000 -1.000000000
0.130000000 -0.010000000 2.000000000 0.000000000 0.000000000 -1.000000000
0.130000000 -0.030000000 2.000000000 0.000000000 0.000000000 -1.000000000
0.130000000 0.010000000 2.000000000 0.000000000 0.000000000 -1.000000000
0.010000000 -0.030000000 2.000000000 0.000000000 0.000000000 -1.000000000
0.010000000 0.030000000 2.000000000 0.000000000 0.000000000 -1.000000000
0.170000000 -0.030000000 2.000000000 0.000000000 0.000000000 -1.000000000
0.170000000 0.030000000 2.000000000 0.000000000 0.000000000 -1.000000000
0.190000000 -0.030000000 2.000000000 0.000000000 0.000000000 -1.000000000
0.190000000 0.030000000 2.000000000 0.000000000 0.000000000 -1.000000000
0.210000000 -0.030000000 2.000000000 0.000000000 0.000000000 -1.000000000
0.210000000 0.030000000 2.000000000 0.000000000 0.000000000 -1.000000000
0.230000000 -0.010000000 2.000000000 0.000000000 0.000000000 -1.000000000
0.230000000 -0.030000000 2.000000000 0.000000000 0.000000000 -1.000000000
0.230000000 0.010000000 2.000000000 0.000000000 0.000000000 -1.000000000
0.030000000 -0.030000000 2.000000000 0.000000000 0.000000000 -1.000000000
3 5 4 1
3 4 6 0
3 4 0 1
3 6 7 2
3 6 2 0
3 7 3 2
3 1 0 23
3 0 2 8
3 0 8 20
3 0 20 23
3 2 3 8
3 3 24 8
3 23 20 34
3 24 11 8
3 34 20 9
3 34 9 10
3 20 8 9
3 10 9 13
3 9 8 14
3 9 12 13
3 8 11 14
3 11 15 14
3 13 12 17
3 12 16 17
3 14 15 18
3 15 19 18
3 17 16 20
3 17 20 21
3 16 22 20
3 18 19 22
3 19 26 22
3 21 20 25
3 22 8 20
3 22 26 8
3 25 20 27
3 26 28 8
3 27 20 29
3 28 30 8
3 29 20 32
3 20 8 31
3 20 31 32
3 8 30 33
3 8 33 31
