# Elektron Phase 4D fixture surface — not production mesh
# numeric_law deterministic_decimal_text_%.9f
mtllib surface_mesh.mtl
usemtl SurfaceFixture
v -0.010000000 -0.010000000 2.000000000
vn 0.000000000 0.000000000 -1.000000000
v -0.010000000 -0.030000000 2.000000000
vn 0.000000000 0.000000000 -1.000000000
v -0.010000000 0.010000000 2.000000000
vn 0.000000000 0.000000000 -1.000000000
v -0.010000000 0.030000000 2.000000000
vn 0.000000000 0.000000000 -1.000000000
v -0.030000000 -0.010000000 2.000000000
vn 0.000000000 0.000000000 -1.000000000
v -0.030000000 -0.030000000 2.000000000
vn 0.000000000 0.000000000 -1.000000000
v -0.030000000 0.010000000 2.000000000
vn 0.000000000 0.000000000 -1.000000000
v -0.030000000 0.030000000 2.000000000
vn 0.000000000 0.000000000 -1.000000000
v 0.000486486 0.000000000 2.000000000
vn 0.000000000 0.000000000 -1.000000000
v 0.070000000 -0.010000000 2.000000000
vn 0.000000000 0.000000000 -1.000000000
v 0.070000000 -0.030000000 2.000000000
vn 0.000000000 0.000000000 -1.000000000
v 0.070000000 0.010000000 2.000000000
vn 0.000000000 0.000000000 -1.000000000
v 0.070000000 0.030000000 2.000000000
vn 0.000000000 0.000000000 -1.000000000
v 0.090000000 -0.010000000 2.000000000
vn 0.000000000 0.000000000 -1.000000000
v 0.090000000 -0.030000000 2.000000000
vn 0.000000000 0.000000000 -1.000000000
v 0.090000000 0.010000000 2.000000000
vn 0.000000000 0.000000000 -1.000000000
v 0.090000000 0.030000000 2.000000000
vn 0.000000000 0.000000000 -1.000000000
v 0.110000000 -0.010000000 2.000000000
vn 0.000000000 0.000000000 -1.000000000
v 0.110000000 -0.030000000 2.000000000
vn 0.000000000 0.000000000 -1.000000000
v 0.110000000 0.010000000 2.000000000
vn 0.000000000 0.000000000 -1.000000000
v 0.110000000 0.030000000 2.000000000
vn 0.000000000 0.000000000 -1.000000000
v 0.130000000 -0.010000000 2.000000000
vn 0.000000000 0.000000000 -1.000000000
v 0.130000000 -0.030000000 2.000000000
vn 0.000000000 0.000000000 -1.000000000
v 0.130000000 0.010000000 2.000000000
vn 0.000000000 0.000000000 -1.000000000
v 0.010000000 -0.010000000 2.000000000
vn 0.000000000 0.000000000 -1.000000000
v 0.010000000 -0.030000000 2.000000000
vn 0.000000000 0.000000000 -1.000000000
v 0.012000000 0.000000000 2.000000000
vn 0.000000000 0.000000000 -1.000000000
v 0.010000000 0.010000000 2.000000000
vn 0.000000000 0.000000000 -1.000000000
v 0.010000000 0.030000000 2.000000000
vn 0.000000000 0.000000000 -1.000000000
v 0.170000000 -0.010000000 2.000000000
vn 0.000000000 0.000000000 -1.000000000
v 0.170000000 -0.030000000 2.000000000
vn 0.000000000 0.000000000 -1.000000000
v 0.170000000 0.010000000 2.000000000
vn 0.000000000 0.000000000 -1.000000000
v 0.170000000 0.030000000 2.000000000
vn 0.000000000 0.000000000 -1.000000000
v 0.190000000 -0.010000000 2.000000000
vn 0.000000000 0.000000000 -1.000000000
v 0.190000000 -0.030000000 2.000000000
vn 0.000000000 0.000000000 -1.000000000
v 0.190000000 0.010000000 2.000000000
vn 0.000000000 0.000000000 -1.000000000
v 0.190000000 0.030000000 2.000000000
vn 0.000000000 0.000000000 -1.000000000
v 0.210000000 -0.010000000 2.000000000
vn 0.000000000 0.000000000 -1.000000000
v 0.210000000 -0.030000000 2.000000000
vn 0.000000000 0.000000000 -1.000000000
v 0.210000000 0.010000000 2.000000000
vn 0.000000000 0.000000000 -1.000000000
v 0.210000000 0.030000000 2.000000000
vn 0.000000000 0.000000000 -1.000000000
v 0.230000000 -0.010000000 2.000000000
vn 0.000000000 0.000000000 -1.000000000
v 0.230000000 -0.030000000 2.000000000
vn 0.000000000 0.000000000 -1.000000000
v 0.230000000 0.010000000 2.000000000
vn 0.000000000 0.000000000 -1.000000000
v 0.030000000 -0.010000000 2.000000000
vn 0.000000000 0.000000000 -1.000000000
v 0.030000000 -0.030000000 2.000000000
vn 0.000000000 0.000000000 -1.000000000
v 0.030000000 0.010000000 2.000000000
vn 0.000000000 0.000000000 -1.000000000
f 6//6 5//5 2//2
f 5//5 7//7 1//1
f 5//5 1//1 2//2
f 7//7 8//8 3//3
f 7//7 3//3 1//1
f 8//8 4//4 3//3
f 2//2 1//1 26//26
f 1//1 3//3 9//9
f 1//1 9//9 25//25
f 1//1 25//25 26//26
f 3//3 4//4 28//28
f 3//3 28//28 9//9
f 4//4 29//29 28//28
f 9//9 28//28 27//27
f 9//9 27//27 25//25
f 26//26 25//25 46//46
f 25//25 27//27 45//45
f 25//25 45//45 46//46
f 28//28 29//29 47//47
f 28//28 47//47 27//27
f 29//29 13//13 47//47
f 27//27 47//47 45//45
f 46//46 45//45 10//10
f 46//46 10//10 11//11
f 45//45 47//47 10//10
f 47//47 12//12 10//10
f 47//47 13//13 12//12
f 11//11 10//10 15//15
f 10//10 12//12 16//16
f 10//10 14//14 15//15
f 12//12 13//13 16//16
f 13//13 17//17 16//16
f 15//15 14//14 19//19
f 14//14 18//18 19//19
f 16//16 17//17 20//20
f 17//17 21//21 20//20
f 19//19 18//18 22//22
f 19//19 22//22 23//23
f 18//18 24//24 22//22
f 20//20 21//21 24//24
f 21//21 33//33 24//24
f 23//23 22//22 30//30
f 23//23 30//30 31//31
f 22//22 24//24 30//30
f 24//24 32//32 30//30
f 24//24 33//33 32//32
f 31//31 30//30 35//35
f 30//30 32//32 34//34
f 30//30 34//34 35//35
f 32//32 33//33 36//36
f 32//32 36//36 34//34
f 33//33 37//37 36//36
f 35//35 34//34 39//39
f 34//34 36//36 38//38
f 34//34 38//38 39//39
f 36//36 37//37 40//40
f 36//36 40//40 38//38
f 37//37 41//41 40//40
f 39//39 38//38 43//43
f 38//38 40//40 42//42
f 38//38 42//42 43//43
f 40//40 41//41 44//44
f 40//40 44//44 42//42
