ply
format ascii 1.0
comment Elektron Phase 4B fixture PLY — not production mesh
comment reconstruction_output_id RECON-OUT-FIXTURE-POSE-REFINED-000001
comment authority RECONSTRUCTION_ESTIMATE
element vertex 45
property float x
property float y
property float z
end_header
-0.030000000 -0.030000000 2.000000000
-0.030000000 -0.010000000 2.000000000
-0.030000000 0.010000000 2.000000000
-0.030000000 0.030000000 2.000000000
-0.010000000 -0.030000000 2.000000000
-0.010000000 -0.010000000 2.000000000
-0.010000000 0.010000000 2.000000000
-0.010000000 0.030000000 2.000000000
0.010000000 -0.030000000 2.000000000
0.010000000 -0.010000000 2.000000000
0.010000000 0.010000000 2.000000000
0.010000000 0.030000000 2.000000000
0.030000000 -0.030000000 2.000000000
0.030000000 -0.010000000 2.000000000
0.030000000 0.010000000 2.000000000
0.070000000 -0.030000000 2.000000000
0.070000000 -0.010000000 2.000000000
0.070000000 0.010000000 2.000000000
0.070000000 0.030000000 2.000000000
0.090000000 -0.030000000 2.000000000
0.090000000 -0.010000000 2.000000000
0.090000000 0.010000000 2.000000000
0.090000000 0.030000000 2.000000000
0.110000000 -0.030000000 2.000000000
0.110000000 -0.010000000 2.000000000
0.110000000 0.010000000 2.000000000
0.110000000 0.030000000 2.000000000
0.130000000 -0.030000000 2.000000000
0.130000000 -0.010000000 2.000000000
0.130000000 0.010000000 2.000000000
0.170000000 -0.030000000 2.000000000
0.170000000 -0.010000000 2.000000000
0.170000000 0.010000000 2.000000000
0.170000000 0.030000000 2.000000000
0.190000000 -0.030000000 2.000000000
0.190000000 -0.010000000 2.000000000
0.190000000 0.010000000 2.000000000
0.190000000 0.030000000 2.000000000
0.210000000 -0.030000000 2.000000000
0.210000000 -0.010000000 2.000000000
0.210000000 0.010000000 2.000000000
0.210000000 0.030000000 2.000000000
0.230000000 -0.030000000 2.000000000
0.230000000 -0.010000000 2.000000000
0.230000000 0.010000000 2.000000000
